<mxfile host="app.diagrams.net" agent="Mozilla/5.0 (Windows NT 10.0; Win64; x64) AppleWebKit/537.36 (KHTML, like Gecko) Chrome/130.0.0.0 Safari/537.36" version="24.8.2">
  <diagram name="Page-1" id="rZXAK-LVOmlyO_TUPFwU">
    <mxGraphModel dx="1434" dy="1872" grid="1" gridSize="10" guides="1" tooltips="1" connect="1" arrows="1" fold="1" page="1" pageScale="1" pageWidth="850" pageHeight="1100" math="0" shadow="0">
      <root>
        <mxCell id="0" />
        <mxCell id="1" parent="0" />
        <mxCell id="4OGUl7-qcucQh-Lw1urA-1" value="LÉGKONDI" style="rounded=1;whiteSpace=wrap;html=1;" parent="1" vertex="1">
          <mxGeometry x="334" y="420" width="120" height="60" as="geometry" />
        </mxCell>
        <mxCell id="4OGUl7-qcucQh-Lw1urA-2" value="PC1" style="whiteSpace=wrap;html=1;aspect=fixed;" parent="1" vertex="1">
          <mxGeometry x="30" y="230" width="30" height="30" as="geometry" />
        </mxCell>
        <mxCell id="4OGUl7-qcucQh-Lw1urA-3" value="PC3" style="whiteSpace=wrap;html=1;aspect=fixed;" parent="1" vertex="1">
          <mxGeometry x="80" y="230" width="30" height="30" as="geometry" />
        </mxCell>
        <mxCell id="4OGUl7-qcucQh-Lw1urA-9" value="PC12" style="whiteSpace=wrap;html=1;aspect=fixed;" parent="1" vertex="1">
          <mxGeometry x="380" y="300" width="30" height="30" as="geometry" />
        </mxCell>
        <mxCell id="4OGUl7-qcucQh-Lw1urA-10" value="PC11" style="whiteSpace=wrap;html=1;aspect=fixed;" parent="1" vertex="1">
          <mxGeometry x="380" y="230" width="30" height="30" as="geometry" />
        </mxCell>
        <mxCell id="4OGUl7-qcucQh-Lw1urA-11" value="PC10" style="whiteSpace=wrap;html=1;aspect=fixed;" parent="1" vertex="1">
          <mxGeometry x="320" y="300" width="30" height="30" as="geometry" />
        </mxCell>
        <mxCell id="4OGUl7-qcucQh-Lw1urA-12" value="PC9" style="whiteSpace=wrap;html=1;aspect=fixed;" parent="1" vertex="1">
          <mxGeometry x="320" y="230" width="30" height="30" as="geometry" />
        </mxCell>
        <mxCell id="4OGUl7-qcucQh-Lw1urA-13" value="PC8" style="whiteSpace=wrap;html=1;aspect=fixed;" parent="1" vertex="1">
          <mxGeometry x="260" y="300" width="30" height="30" as="geometry" />
        </mxCell>
        <mxCell id="4OGUl7-qcucQh-Lw1urA-14" value="PC7" style="whiteSpace=wrap;html=1;aspect=fixed;" parent="1" vertex="1">
          <mxGeometry x="260" y="230" width="30" height="30" as="geometry" />
        </mxCell>
        <mxCell id="4OGUl7-qcucQh-Lw1urA-15" value="PC5" style="whiteSpace=wrap;html=1;aspect=fixed;" parent="1" vertex="1">
          <mxGeometry x="200" y="230" width="30" height="30" as="geometry" />
        </mxCell>
        <mxCell id="4OGUl7-qcucQh-Lw1urA-16" value="PC6" style="whiteSpace=wrap;html=1;aspect=fixed;" parent="1" vertex="1">
          <mxGeometry x="200" y="300" width="30" height="30" as="geometry" />
        </mxCell>
        <mxCell id="4OGUl7-qcucQh-Lw1urA-17" value="PC4" style="whiteSpace=wrap;html=1;aspect=fixed;" parent="1" vertex="1">
          <mxGeometry x="80" y="300" width="30" height="30" as="geometry" />
        </mxCell>
        <mxCell id="4OGUl7-qcucQh-Lw1urA-18" value="PC2" style="whiteSpace=wrap;html=1;aspect=fixed;" parent="1" vertex="1">
          <mxGeometry x="30" y="300" width="30" height="30" as="geometry" />
        </mxCell>
        <mxCell id="4OGUl7-qcucQh-Lw1urA-25" value="PC20" style="whiteSpace=wrap;html=1;aspect=fixed;" parent="1" vertex="1">
          <mxGeometry x="640" y="300" width="30" height="30" as="geometry" />
        </mxCell>
        <mxCell id="4OGUl7-qcucQh-Lw1urA-26" value="PC19" style="whiteSpace=wrap;html=1;aspect=fixed;" parent="1" vertex="1">
          <mxGeometry x="640" y="230" width="30" height="30" as="geometry" />
        </mxCell>
        <mxCell id="4OGUl7-qcucQh-Lw1urA-27" value="PC18" style="whiteSpace=wrap;html=1;aspect=fixed;" parent="1" vertex="1">
          <mxGeometry x="580" y="300" width="30" height="30" as="geometry" />
        </mxCell>
        <mxCell id="4OGUl7-qcucQh-Lw1urA-28" value="PC17" style="whiteSpace=wrap;html=1;aspect=fixed;" parent="1" vertex="1">
          <mxGeometry x="580" y="230" width="30" height="30" as="geometry" />
        </mxCell>
        <mxCell id="4OGUl7-qcucQh-Lw1urA-29" value="PC16" style="whiteSpace=wrap;html=1;aspect=fixed;" parent="1" vertex="1">
          <mxGeometry x="520" y="300" width="30" height="30" as="geometry" />
        </mxCell>
        <mxCell id="4OGUl7-qcucQh-Lw1urA-30" value="PC15" style="whiteSpace=wrap;html=1;aspect=fixed;" parent="1" vertex="1">
          <mxGeometry x="520" y="230" width="30" height="30" as="geometry" />
        </mxCell>
        <mxCell id="4OGUl7-qcucQh-Lw1urA-31" value="PC13" style="whiteSpace=wrap;html=1;aspect=fixed;" parent="1" vertex="1">
          <mxGeometry x="460" y="230" width="30" height="30" as="geometry" />
        </mxCell>
        <mxCell id="4OGUl7-qcucQh-Lw1urA-32" value="PC14" style="whiteSpace=wrap;html=1;aspect=fixed;" parent="1" vertex="1">
          <mxGeometry x="460" y="300" width="30" height="30" as="geometry" />
        </mxCell>
        <mxCell id="4OGUl7-qcucQh-Lw1urA-44" value="" style="edgeStyle=orthogonalEdgeStyle;rounded=0;orthogonalLoop=1;jettySize=auto;html=1;" parent="1" source="4OGUl7-qcucQh-Lw1urA-34" edge="1">
          <mxGeometry relative="1" as="geometry">
            <mxPoint x="435" y="210" as="targetPoint" />
          </mxGeometry>
        </mxCell>
        <mxCell id="4OGUl7-qcucQh-Lw1urA-34" value="PROJEKTOR" style="rounded=0;whiteSpace=wrap;html=1;" parent="1" vertex="1">
          <mxGeometry x="425" y="280" width="20" height="20" as="geometry" />
        </mxCell>
        <mxCell id="4OGUl7-qcucQh-Lw1urA-40" value="SW1" style="whiteSpace=wrap;html=1;aspect=fixed;" parent="1" vertex="1">
          <mxGeometry x="720" y="50" width="80" height="80" as="geometry" />
        </mxCell>
        <mxCell id="4OGUl7-qcucQh-Lw1urA-41" value="PC21" style="rounded=0;whiteSpace=wrap;html=1;" parent="1" vertex="1">
          <mxGeometry x="260" y="130" width="30" height="30" as="geometry" />
        </mxCell>
        <mxCell id="cjD6jp7U-Zv08Slwwt60-1" value="8-as terem hálózata" style="text;strokeColor=none;align=center;fillColor=none;html=1;verticalAlign=middle;whiteSpace=wrap;rounded=0;" vertex="1" parent="1">
          <mxGeometry x="360" y="-20" width="120" height="100" as="geometry" />
        </mxCell>
        <mxCell id="cjD6jp7U-Zv08Slwwt60-25" value="P.I.LPTOP" style="rounded=0;whiteSpace=wrap;html=1;" vertex="1" parent="1">
          <mxGeometry x="320" y="130" width="30" height="30" as="geometry" />
        </mxCell>
        <mxCell id="cjD6jp7U-Zv08Slwwt60-26" value="R1" style="ellipse;whiteSpace=wrap;html=1;aspect=fixed;" vertex="1" parent="1">
          <mxGeometry x="30" y="20" width="50" height="50" as="geometry" />
        </mxCell>
      </root>
    </mxGraphModel>
  </diagram>
</mxfile>
